<svg width="123" height="32" viewBox="0 0 123 32" fill="none" xmlns="http://www.w3.org/2000/svg">
<path d="M48.6281 21.9999V6.59991H50.4761V20.5259H57.6481V21.9999H48.6281Z" fill="white"/>
<path d="M60.8986 8.66791C60.532 8.66791 60.224 8.55058 59.9746 8.31591C59.74 8.06658 59.6226 7.75858 59.6226 7.39191C59.6226 7.03991 59.74 6.74658 59.9746 6.51191C60.224 6.27725 60.532 6.15991 60.8986 6.15991C61.2506 6.15991 61.5513 6.27725 61.8006 6.51191C62.05 6.74658 62.1746 7.03991 62.1746 7.39191C62.1746 7.75858 62.05 8.06658 61.8006 8.31591C61.5513 8.55058 61.2506 8.66791 60.8986 8.66791ZM59.9746 21.9999V11.0879H61.8226V21.9999H59.9746Z" fill="white"/>
<path d="M70.5703 22.2639C69.6757 22.2639 68.8763 22.0806 68.1723 21.7139C67.483 21.3472 66.955 20.8339 66.5883 20.1739L66.4123 21.9999H64.7403V6.15991H66.5883V12.8919C66.9403 12.3639 67.439 11.8872 68.0843 11.4619C68.7443 11.0366 69.5803 10.8239 70.5923 10.8239C71.6777 10.8239 72.6236 11.0732 73.4303 11.5719C74.237 12.0706 74.8603 12.7526 75.3003 13.6179C75.755 14.4832 75.9823 15.4659 75.9823 16.5659C75.9823 17.6659 75.755 18.6486 75.3003 19.5139C74.8603 20.3646 74.2297 21.0392 73.4083 21.5379C72.6017 22.0219 71.6557 22.2639 70.5703 22.2639ZM70.3723 20.6579C71.1057 20.6579 71.751 20.4892 72.3083 20.1519C72.8657 19.7999 73.3057 19.3159 73.6283 18.6999C73.951 18.0839 74.1123 17.3652 74.1123 16.5439C74.1123 15.7226 73.951 15.0039 73.6283 14.3879C73.3057 13.7719 72.8657 13.2952 72.3083 12.9579C71.751 12.6059 71.1057 12.4299 70.3723 12.4299C69.639 12.4299 68.9937 12.6059 68.4363 12.9579C67.879 13.2952 67.439 13.7719 67.1163 14.3879C66.7937 15.0039 66.6323 15.7226 66.6323 16.5439C66.6323 17.3652 66.7937 18.0839 67.1163 18.6999C67.439 19.3159 67.879 19.7999 68.4363 20.1519C68.9937 20.4892 69.639 20.6579 70.3723 20.6579Z" fill="white"/>
<path d="M82.4348 22.2639C81.1294 22.2639 80.0441 21.9339 79.1788 21.2739C78.3134 20.6139 77.8074 19.7192 77.6608 18.5899H79.5528C79.6701 19.1619 79.9708 19.6606 80.4548 20.0859C80.9534 20.4966 81.6208 20.7019 82.4568 20.7019C83.2341 20.7019 83.8061 20.5406 84.1728 20.2179C84.5394 19.8806 84.7228 19.4846 84.7228 19.0299C84.7228 18.3699 84.4808 17.9299 83.9968 17.7099C83.5274 17.4899 82.8601 17.2919 81.9948 17.1159C81.4081 16.9986 80.8214 16.8299 80.2348 16.6099C79.6481 16.3899 79.1568 16.0819 78.7608 15.6859C78.3648 15.2752 78.1668 14.7399 78.1668 14.0799C78.1668 13.1266 78.5188 12.3492 79.2228 11.7479C79.9414 11.1319 80.9094 10.8239 82.1268 10.8239C83.2854 10.8239 84.2314 11.1172 84.9648 11.7039C85.7128 12.2759 86.1454 13.0972 86.2628 14.1679H84.4368C84.3634 13.6106 84.1214 13.1779 83.7108 12.8699C83.3148 12.5472 82.7794 12.3859 82.1048 12.3859C81.4448 12.3859 80.9314 12.5252 80.5648 12.8039C80.2128 13.0826 80.0368 13.4492 80.0368 13.9039C80.0368 14.3439 80.2641 14.6886 80.7188 14.9379C81.1881 15.1872 81.8188 15.3999 82.6108 15.5759C83.2854 15.7226 83.9234 15.9059 84.5248 16.1259C85.1408 16.3312 85.6394 16.6466 86.0208 17.0719C86.4168 17.4826 86.6148 18.0839 86.6148 18.8759C86.6294 19.8586 86.2554 20.6726 85.4928 21.3179C84.7448 21.9486 83.7254 22.2639 82.4348 22.2639Z" fill="white"/>
<path d="M88.9548 21.9999V6.15991H90.8028V21.9999H88.9548Z" fill="white"/>
<path d="M94.6537 8.66791C94.2871 8.66791 93.9791 8.55058 93.7297 8.31591C93.4951 8.06658 93.3777 7.75858 93.3777 7.39191C93.3777 7.03991 93.4951 6.74658 93.7297 6.51191C93.9791 6.27725 94.2871 6.15991 94.6537 6.15991C95.0057 6.15991 95.3064 6.27725 95.5557 6.51191C95.8051 6.74658 95.9297 7.03991 95.9297 7.39191C95.9297 7.75858 95.8051 8.06658 95.5557 8.31591C95.3064 8.55058 95.0057 8.66791 94.6537 8.66791ZM93.7297 21.9999V11.0879H95.5777V21.9999H93.7297Z" fill="white"/>
<path d="M103.445 22.2639C102.36 22.2639 101.407 22.0146 100.585 21.5159C99.7787 21.0172 99.1481 20.3352 98.6934 19.4699C98.2534 18.6046 98.0334 17.6219 98.0334 16.5219C98.0334 15.4219 98.2607 14.4466 98.7154 13.5959C99.1701 12.7306 99.8007 12.0559 100.607 11.5719C101.414 11.0732 102.367 10.8239 103.467 10.8239C104.362 10.8239 105.154 11.0072 105.843 11.3739C106.533 11.7406 107.068 12.2539 107.449 12.9139V6.15991H109.297V21.9999H107.625L107.449 20.1959C107.097 20.7239 106.591 21.2006 105.931 21.6259C105.271 22.0512 104.443 22.2639 103.445 22.2639ZM103.643 20.6579C104.377 20.6579 105.022 20.4892 105.579 20.1519C106.151 19.7999 106.591 19.3159 106.899 18.6999C107.222 18.0839 107.383 17.3652 107.383 16.5439C107.383 15.7226 107.222 15.0039 106.899 14.3879C106.591 13.7719 106.151 13.2952 105.579 12.9579C105.022 12.6059 104.377 12.4299 103.643 12.4299C102.925 12.4299 102.279 12.6059 101.707 12.9579C101.15 13.2952 100.71 13.7719 100.387 14.3879C100.079 15.0039 99.9254 15.7226 99.9254 16.5439C99.9254 17.3652 100.079 18.0839 100.387 18.6999C100.71 19.3159 101.15 19.7999 101.707 20.1519C102.279 20.4892 102.925 20.6579 103.643 20.6579Z" fill="white"/>
<path d="M116.916 22.2639C115.875 22.2639 114.951 22.0292 114.144 21.5599C113.337 21.0759 112.699 20.4086 112.23 19.5579C111.775 18.7072 111.548 17.7026 111.548 16.5439C111.548 15.3999 111.775 14.4026 112.23 13.5519C112.685 12.6866 113.315 12.0192 114.122 11.5499C114.943 11.0659 115.889 10.8239 116.96 10.8239C118.016 10.8239 118.925 11.0659 119.688 11.5499C120.465 12.0192 121.059 12.6426 121.47 13.4199C121.881 14.1972 122.086 15.0332 122.086 15.9279C122.086 16.0892 122.079 16.2506 122.064 16.4119C122.064 16.5732 122.064 16.7566 122.064 16.9619H113.374C113.418 17.7979 113.609 18.4946 113.946 19.0519C114.298 19.5946 114.731 20.0052 115.244 20.2839C115.772 20.5626 116.329 20.7019 116.916 20.7019C117.679 20.7019 118.317 20.5259 118.83 20.1739C119.343 19.8219 119.717 19.3452 119.952 18.7439H121.778C121.485 19.7559 120.92 20.5992 120.084 21.2739C119.263 21.9339 118.207 22.2639 116.916 22.2639ZM116.916 12.3859C116.036 12.3859 115.251 12.6572 114.562 13.1999C113.887 13.7279 113.499 14.5052 113.396 15.5319H120.26C120.216 14.5492 119.879 13.7792 119.248 13.2219C118.617 12.6646 117.84 12.3859 116.916 12.3859Z" fill="white"/>
<path d="M17.049 0.019043L0 11.0404L7.59215 15.9483L17.049 9.83492L26.5059 15.9483L34.0982 11.0404L17.049 0.019043Z" fill="white"/>
<path d="M7.59205 15.9482L0 20.8561L17.049 31.8775L34.0982 20.8561L26.5061 15.9482L17.049 22.0618L7.59205 15.9482Z" fill="white"/>
</svg>
